<?xml version="1.0" standalone="no"?>
<!DOCTYPE svg PUBLIC "-//W3C//DTD SVG 20010904//EN"
 "http://www.w3.org/TR/2001/REC-SVG-20010904/DTD/svg10.dtd">
<svg version="1.0" xmlns="http://www.w3.org/2000/svg"
 width="490.000000pt" height="89.000000pt" viewBox="0 0 490.000000 89.000000"
 preserveAspectRatio="xMidYMid meet">

<g transform="translate(0.000000,89.000000) scale(0.100000,-0.100000)"
fill="#FAE8D7" stroke="none">
<path d="M4845 877 c-13 -8 -83 -14 -194 -17 l-174 -5 4 -215 c6 -329 2 -541
-10 -553 -20 -20 -11 -38 25 -53 61 -26 159 5 126 38 -8 8 -12 64 -12 171 l0
159 72 -3 73 -4 9 42 c13 62 0 73 -85 73 l-69 0 0 121 0 121 130 -3 130 -4 0
73 c0 39 -1 72 -2 72 -2 0 -12 -6 -23 -13z"/>
<path d="M4035 846 c-107 -47 -165 -191 -165 -407 1 -223 77 -385 196 -418 48
-13 60 -14 107 0 97 27 160 132 178 300 23 211 -9 395 -85 477 -51 57 -159 80
-231 48z m125 -124 c45 -46 55 -97 55 -287 0 -185 -10 -241 -50 -281 -32 -32
-61 -30 -95 6 -44 48 -55 105 -55 300 0 162 2 178 23 221 35 71 77 85 122 41z"/>
<path d="M465 837 c-27 -15 -319 -21 -375 -8 -24 5 -46 9 -47 7 -2 -2 -6 -40
-10 -85 -4 -58 -3 -81 6 -81 6 0 11 4 11 10 0 20 61 41 113 38 l52 -3 3 -319
c1 -206 -1 -323 -8 -330 -19 -19 -10 -35 29 -47 44 -13 103 -5 121 16 9 11 8
19 -4 37 -14 19 -16 66 -16 335 l0 313 44 0 c33 0 52 -7 74 -25 17 -14 33 -25
36 -25 9 0 7 168 -2 174 -4 2 -16 -1 -27 -7z"/>
<path d="M1486 807 c-3 -16 -6 -56 -6 -89 l0 -60 31 27 c27 22 39 26 88 23
l56 -3 3 -303 c2 -255 0 -307 -13 -332 -15 -28 -14 -30 10 -46 18 -12 39 -15
76 -12 66 7 75 17 58 65 -11 29 -14 107 -14 333 l0 295 43 3 c37 3 47 -1 71
-27 36 -38 41 -29 41 76 0 74 -1 75 -22 68 -13 -4 -93 -10 -178 -12 -119 -4
-165 -1 -197 10 l-41 14 -6 -30z"/>
<path d="M3030 820 c-14 -4 -87 -8 -162 -9 -76 -1 -138 -5 -138 -9 0 -4 5 -13
10 -18 18 -18 9 -696 -9 -717 -11 -14 -11 -20 -1 -32 10 -12 42 -15 166 -15
87 0 155 4 159 10 8 13 23 139 17 145 -3 3 -15 -7 -28 -20 -21 -22 -31 -25
-99 -25 l-75 0 0 126 0 127 85 -5 86 -4 -3 54 -3 55 -82 -2 -83 -2 0 121 0
122 74 -4 c61 -3 79 -8 99 -26 l24 -23 7 62 c11 107 11 107 -44 89z"/>
<path d="M3301 816 c-47 -17 -111 -73 -127 -112 -19 -46 -18 -138 3 -182 9
-21 61 -80 114 -132 102 -100 117 -127 101 -185 -17 -63 -127 -97 -192 -60
-39 22 -46 18 -59 -37 -14 -63 -7 -71 76 -88 207 -43 376 146 292 325 -13 27
-61 84 -120 142 -89 87 -99 101 -99 133 1 83 88 124 173 81 43 -22 43 -23 51
60 l6 57 -31 6 c-50 10 -151 6 -188 -8z"/>
<path d="M2057 723 c-27 -92 -131 -519 -142 -588 -4 -22 -14 -50 -22 -63 -23
-37 -2 -52 73 -52 l64 0 -6 30 c-4 16 -3 50 0 75 l7 45 54 0 54 0 6 -54 c4
-30 4 -63 0 -75 -6 -20 -3 -21 52 -21 91 0 90 -4 54 161 -44 203 -149 611
-159 621 -5 5 -20 -29 -35 -79z m42 -371 c6 -35 14 -69 18 -77 4 -12 -4 -15
-32 -15 l-38 0 7 38 c4 20 9 59 13 85 7 59 16 51 32 -31z"/>
<path d="M2355 793 c5 -10 10 -170 13 -355 4 -305 3 -341 -13 -364 -30 -47
-11 -54 150 -54 102 0 145 4 153 13 5 6 12 40 14 73 4 58 3 61 -14 50 -10 -6
-18 -14 -18 -18 0 -5 -36 -8 -80 -8 l-80 0 0 328 c0 242 3 331 12 340 9 9 -5
12 -66 12 -71 0 -77 -2 -71 -17z"/>
<path d="M545 380 l0 -250 63 0 c47 0 62 3 62 14 0 8 -4 18 -10 21 -5 3 -10
46 -10 96 l0 89 71 0 70 0 -3 -92 c-2 -51 -7 -101 -12 -110 -7 -16 -1 -18 59
-18 65 0 67 1 60 23 -13 39 -18 438 -6 450 21 21 10 27 -54 27 -50 0 -65 -3
-65 -14 0 -8 5 -18 10 -21 6 -3 10 -42 10 -86 l0 -79 -70 0 -70 0 0 84 c0 47
5 88 10 91 25 15 5 25 -52 25 l-63 0 0 -250z"/>
<path d="M990 617 c0 -7 5 -18 11 -24 13 -13 7 -399 -6 -440 l-7 -23 141 0
141 0 0 49 c0 28 -4 53 -10 56 -5 3 -10 -3 -10 -14 0 -19 -6 -21 -75 -21 l-75
0 0 80 c0 89 -5 85 83 71 l47 -8 0 48 0 49 -62 -3 -63 -2 -3 68 -3 67 55 0
c30 0 66 -4 79 -9 21 -8 26 -6 31 12 15 58 18 57 -134 57 -108 0 -140 -3 -140
-13z"/>
</g>
</svg>
