<?xml version="1.0" standalone="no"?>
<!DOCTYPE svg PUBLIC "-//W3C//DTD SVG 20010904//EN"
 "http://www.w3.org/TR/2001/REC-SVG-20010904/DTD/svg10.dtd">
<svg version="1.0" xmlns="http://www.w3.org/2000/svg"
 width="490.000000pt" height="591.000000pt" viewBox="0 0 490.000000 591.000000"
 preserveAspectRatio="xMidYMid meet">

<g transform="translate(0.000000,591.000000) scale(0.100000,-0.100000)"
fill="#FFFFFF" stroke="none">
<path d="M2285 5894 c-16 -2 -73 -9 -125 -15 -416 -48 -840 -227 -1177 -500
-92 -74 -255 -237 -334 -335 -202 -247 -369 -578 -450 -891 -63 -247 -74 -341
-73 -638 0 -203 5 -299 18 -385 20 -136 59 -317 84 -390 l18 -51 164 128 c91
71 211 165 267 210 57 45 133 100 170 122 98 58 327 152 561 232 238 80 284
103 356 179 157 164 190 413 85 622 -48 95 -143 186 -304 293 -130 85 -294
213 -339 263 -23 27 -13 28 22 4 49 -33 136 -79 253 -132 170 -78 264 -136
350 -220 103 -101 160 -219 190 -392 6 -38 15 -68 20 -68 23 0 92 156 129 290
32 118 46 274 33 375 -20 162 -77 238 -318 425 -116 90 -135 109 -167 170 -19
37 -23 61 -24 140 -1 52 1 100 3 106 4 12 53 -14 171 -87 57 -36 96 -85 119
-150 16 -48 30 -169 19 -169 -4 0 -23 12 -42 26 -35 27 -57 27 -34 -1 7 -8 36
-32 64 -52 28 -20 74 -59 103 -86 52 -50 83 -58 83 -20 0 10 -25 94 -55 188
-30 93 -51 173 -47 177 13 13 95 -162 146 -309 81 -237 106 -405 87 -574 -23
-201 -94 -413 -215 -641 -42 -78 -75 -142 -73 -143 1 -1 62 12 134 31 121 29
237 51 543 99 150 24 174 38 278 163 49 59 97 122 107 140 20 34 43 46 25 13
-5 -11 -21 -55 -35 -99 -25 -79 -63 -143 -114 -189 l-26 -25 35 7 c19 3 110
17 201 30 92 13 182 30 200 38 49 21 109 88 177 197 42 67 66 96 82 98 l22 4
-21 -29 c-11 -15 -27 -45 -36 -65 -15 -38 -15 -38 8 -38 13 0 66 25 117 56 51
31 113 63 137 71 58 20 161 13 233 -15 93 -37 92 -34 25 -102 -33 -34 -80 -73
-104 -88 -47 -27 -75 -30 -227 -21 l-61 4 61 57 c39 38 78 63 109 74 61 20 51
38 -18 32 -40 -3 -71 -16 -126 -48 -41 -24 -100 -54 -132 -65 -51 -19 -62 -28
-91 -76 -18 -30 -51 -67 -73 -84 -23 -16 -42 -33 -42 -37 -1 -4 81 -6 182 -5
218 2 229 -1 358 -114 l83 -74 -30 -6 c-254 -60 -300 -53 -420 62 -65 63 -81
94 -24 45 17 -14 37 -26 43 -27 32 -3 75 4 107 18 27 11 32 16 20 23 -24 13
-176 18 -292 9 -101 -8 -559 -62 -643 -76 -22 -4 -63 -7 -92 -7 -28 -1 -49 -4
-47 -8 6 -10 -92 -21 -117 -13 -12 4 -24 2 -29 -4 -3 -7 -29 -13 -57 -14 -28
-1 -49 -6 -46 -11 4 -5 -6 -6 -21 -2 -20 5 -26 4 -20 -5 5 -8 1 -11 -12 -7
-11 3 -26 -1 -33 -9 -7 -8 -22 -12 -32 -10 -11 3 -19 1 -19 -4 0 -4 -7 -6 -15
-3 -8 4 -15 1 -15 -5 0 -6 -11 -11 -24 -11 -13 0 -26 -5 -28 -10 -2 -6 -46
-29 -98 -51 -52 -22 -132 -63 -178 -91 -45 -27 -141 -76 -214 -109 -73 -33
-153 -71 -178 -86 l-45 -26 20 24 c10 13 37 44 60 68 l40 44 -86 -45 c-149
-78 -268 -176 -345 -284 -121 -170 -178 -389 -152 -584 7 -51 7 -53 -5 -25
-47 104 -48 261 -3 380 31 82 98 194 171 285 44 55 131 180 160 230 15 25 -66
-45 -142 -122 -125 -128 -223 -280 -258 -403 -25 -86 -16 -245 19 -341 40
-110 150 -337 197 -405 56 -83 167 -198 249 -259 61 -45 208 -121 300 -156
l35 -13 -32 0 c-75 -2 -366 32 -474 55 -101 21 -144 33 -244 69 -33 12 133
-98 232 -154 164 -92 461 -210 645 -255 332 -82 730 -83 1051 -2 469 118 920
418 1211 805 56 75 123 174 150 220 137 233 265 613 312 921 21 139 30 552 15
690 -33 305 -151 681 -293 935 -335 597 -921 1000 -1603 1100 -104 16 -354 27
-420 19z m-200 -304 c21 -24 24 -72 5 -94 -18 -23 -76 -20 -100 4 -11 11 -20
31 -20 45 0 56 78 86 115 45z m703 -36 c43 -30 20 -104 -33 -104 -26 0 -55 33
-55 62 0 21 34 58 53 58 7 0 23 -7 35 -16z m422 -111 c15 -51 23 -104 22 -151
0 -99 -27 -151 -110 -212 -34 -25 -84 -75 -112 -112 -27 -37 -55 -70 -61 -74
-15 -9 -6 7 37 63 17 23 44 74 59 115 15 40 36 92 46 116 10 23 14 42 8 42
-11 0 -89 -118 -89 -135 0 -7 -7 -18 -15 -25 -12 -10 -16 -8 -25 15 -15 40
-12 136 7 191 13 38 36 68 105 136 48 48 88 92 88 98 0 5 4 10 8 10 5 0 19
-35 32 -77z m-722 -105 c62 -101 72 -131 72 -219 0 -55 -7 -102 -26 -161 -36
-119 -35 -117 -45 -84 -4 16 -6 33 -3 37 3 5 0 28 -7 51 -6 24 -15 66 -19 93
l-8 50 -1 -62 c0 -35 -5 -63 -11 -63 -20 0 -94 76 -111 115 -34 74 -26 119 52
278 42 88 42 88 54 60 7 -15 31 -58 53 -95z m1013 -111 c-1 -12 -15 -9 -19 4
-3 6 1 10 8 8 6 -3 11 -8 11 -12z m-2104 -137 c72 -29 136 -71 161 -108 29
-40 49 -124 57 -231 4 -52 9 -100 12 -107 3 -8 0 -14 -6 -14 -6 0 -11 12 -11
28 0 42 -25 69 -83 88 -117 38 -178 84 -213 159 -20 42 -24 66 -24 148 l0 98
25 -19 c13 -11 50 -30 82 -42z m1423 -85 c34 -109 36 -140 14 -216 -18 -61
-74 -123 -139 -153 -22 -10 -74 -43 -115 -74 l-75 -55 52 54 51 54 -5 95 c-7
123 13 175 97 253 41 37 62 66 71 95 7 23 13 42 15 42 2 0 17 -43 34 -95z
m935 8 c-3 -16 -21 -57 -38 -93 -40 -82 -81 -107 -194 -120 -43 -5 -86 -12
-96 -16 -17 -6 -16 -4 2 27 10 19 26 57 35 86 35 106 91 142 220 143 l78 0 -7
-27z m-2654 -22 c17 -16 19 -50 4 -65 -23 -23 -72 -21 -85 3 -14 28 -13 38 11
62 19 19 51 19 70 0z m2199 -73 c-23 -117 -69 -175 -162 -203 -29 -8 -57 -15
-64 -15 -7 0 -34 -9 -59 -20 l-48 -20 30 27 c17 17 39 56 53 96 30 85 71 124
168 161 40 15 75 32 78 38 14 22 16 -6 4 -64z m-833 30 c-3 -8 -6 -5 -6 6 -1
11 2 17 5 13 3 -3 4 -12 1 -19z m-516 -223 c6 -16 13 -86 15 -155 3 -124 3
-125 -12 -78 -12 38 -25 54 -62 79 -119 80 -132 105 -132 246 l0 108 90 -85
c49 -47 95 -98 101 -115z m2093 69 c23 -23 20 -51 -8 -69 -33 -22 -66 -5 -66
33 0 49 42 69 74 36z m-2917 -109 c21 -9 49 -32 63 -51 14 -19 35 -48 48 -64
12 -15 22 -31 22 -35 0 -4 -49 -5 -109 -3 -106 3 -111 4 -141 33 -17 16 -44
53 -60 82 l-28 53 84 0 c52 0 98 -6 121 -15z m2653 -133 c0 -145 -34 -223
-121 -278 -20 -13 -50 -26 -66 -30 -15 -4 -58 -37 -95 -72 -38 -36 -68 -61
-68 -55 0 6 7 17 16 24 21 17 147 195 169 238 12 25 13 32 3 29 -7 -2 -35 -41
-63 -86 -27 -44 -53 -81 -57 -82 -5 0 -8 35 -8 78 0 135 44 199 181 261 36 16
71 37 78 45 25 30 31 16 31 -72z m-480 -10 c0 -99 -16 -165 -54 -222 -19 -29
-46 -49 -109 -79 -53 -27 -101 -60 -132 -91 -67 -68 -78 -63 -17 8 63 73 114
145 142 202 35 68 -1 33 -57 -57 -54 -88 -69 -85 -67 15 2 79 30 148 77 188
16 14 65 43 108 64 43 22 80 44 84 50 17 27 25 2 25 -78z m940 -59 c3 -2 -13
-39 -35 -81 -50 -95 -91 -126 -195 -147 -53 -11 -87 -25 -115 -47 -69 -54 -71
-54 -23 0 37 42 47 62 53 102 10 72 53 150 95 172 30 17 48 18 125 13 50 -4
92 -9 95 -12z m-1565 -52 c-3 -5 -10 -44 -15 -85 -17 -134 -42 -163 -213 -254
-80 -42 -95 -48 -83 -29 8 12 20 49 26 82 26 132 73 197 174 239 33 15 72 33
86 40 31 18 32 18 25 7z m-1964 -30 c167 -18 228 -79 254 -254 5 -35 17 -54
51 -88 24 -24 44 -48 44 -53 0 -6 -19 9 -43 32 -35 35 -54 44 -102 54 -110 21
-133 28 -181 61 -63 42 -110 105 -130 175 -9 31 -19 63 -21 70 -6 14 11 15
128 3z m404 -11 c4 -6 37 -26 74 -45 131 -65 162 -109 180 -253 10 -79 15 -90
103 -240 90 -153 137 -250 138 -283 0 -15 -27 -16 -280 -11 -206 4 -280 2
-280 -7 0 -7 22 -11 61 -11 l60 0 -41 -49 c-41 -49 -98 -81 -143 -81 -12 0
-65 9 -117 21 -52 11 -106 23 -119 25 l-24 5 24 16 c13 9 51 42 84 74 86 80
116 86 373 65 293 -24 332 -27 332 -22 0 2 -48 27 -107 56 -60 28 -143 72
-185 96 l-77 45 -46 -27 c-39 -23 -53 -26 -95 -20 -74 10 -110 29 -174 94
l-58 60 63 21 c146 48 188 39 321 -67 69 -55 276 -190 351 -229 l29 -14 -36
68 c-20 37 -69 120 -109 183 -63 100 -81 120 -137 158 -162 108 -182 138 -188
285 -3 64 -1 97 6 97 6 0 14 -5 17 -10z m558 -265 c67 -50 80 -90 84 -248 3
-85 0 -137 -5 -133 -6 3 -13 21 -16 41 -5 24 -19 44 -48 67 -87 69 -136 123
-147 163 -6 22 -11 85 -11 139 l0 99 53 -49 c28 -28 69 -63 90 -79z m1179 -32
c-10 -16 -24 -43 -32 -61 -17 -45 -92 -120 -137 -139 -20 -8 -75 -19 -122 -23
-48 -5 -99 -11 -116 -15 l-30 -8 21 24 c12 13 31 43 43 66 27 55 76 110 115
130 19 10 72 19 135 24 57 4 108 12 114 18 22 22 28 10 9 -16z m476 -55 c-11
-50 -28 -71 -69 -88 -39 -16 -45 -9 -31 38 13 44 33 65 77 80 17 6 31 11 31
11 1 1 -2 -18 -8 -41z m-110 -591 c83 -66 162 -109 162 -88 0 17 -39 42 -74
48 -20 3 -36 9 -36 12 0 12 105 41 149 41 66 0 104 -22 165 -96 54 -65 55 -69
34 -77 -12 -4 -69 -10 -127 -14 -150 -8 -180 6 -311 145 -54 58 -97 110 -94
114 8 12 28 -2 132 -85z m-463 -7 c239 -64 472 -229 637 -450 100 -134 175
-297 220 -478 30 -118 32 -403 5 -531 -27 -124 -64 -235 -114 -341 l-44 -95
-140 -46 -140 -46 -20 39 c-30 59 -102 126 -167 156 -49 22 -71 26 -157 26
-55 0 -139 -3 -186 -8 -103 -10 -144 0 -202 53 -36 32 -76 99 -77 126 0 6 27
10 63 10 49 0 69 5 94 23 32 23 185 240 198 280 3 12 22 27 41 34 30 11 44 28
89 108 29 52 81 140 114 194 62 103 66 126 19 126 -25 0 -99 -44 -165 -98 -29
-23 -53 -39 -53 -34 0 13 61 67 128 111 34 23 60 47 56 52 -6 11 -30 -2 -99
-54 -36 -28 -35 -25 14 25 51 54 63 90 21 68 -23 -12 -34 1 -25 30 18 55 -59
-15 -95 -87 -12 -25 -24 -62 -27 -84 -3 -21 -10 -39 -16 -39 -5 0 -49 25 -97
55 -93 59 -126 69 -117 35 4 -16 1 -18 -24 -13 -15 3 -36 2 -46 -2 -13 -5 6
-15 67 -35 82 -27 256 -105 215 -96 -11 2 -68 22 -126 45 -58 22 -124 43 -146
47 -40 6 -41 5 -48 -26 -4 -18 -34 -89 -66 -157 -32 -69 -59 -131 -59 -138 0
-8 34 -24 85 -40 47 -14 85 -30 85 -35 0 -6 -6 -10 -13 -10 -12 0 -158 41
-194 55 -9 3 -2 27 23 82 90 195 108 244 93 253 -87 50 -129 99 -129 150 0 19
4 21 28 16 90 -20 91 -20 103 10 6 16 13 44 16 62 3 18 17 41 30 52 24 18 24
19 7 46 -14 20 -17 44 -15 104 2 70 -1 80 -24 108 -47 56 -149 81 -251 62 -77
-15 -121 -42 -152 -95 -19 -34 -22 -50 -18 -100 l5 -60 -41 0 c-77 0 -122 -90
-86 -170 13 -28 55 -55 85 -55 30 0 82 38 89 65 5 21 10 24 31 19 16 -5 33 0
51 13 l27 20 -3 -76 c-5 -96 -18 -111 -124 -147 -50 -16 -84 -34 -93 -48 -33
-49 -64 -272 -66 -463 -1 -83 3 -109 18 -135 15 -28 70 -65 117 -81 11 -4 -40
-131 -107 -267 -30 -61 -34 -65 -64 -64 -19 1 -77 28 -142 64 -262 149 -457
358 -527 565 -23 69 -27 97 -28 205 -1 106 3 136 22 194 91 271 285 478 550
586 135 55 241 111 360 189 155 102 199 125 292 146 41 9 80 19 85 21 30 12
277 -7 350 -26z m-2305 -75 c21 -7 28 -25 10 -25 -6 0 -18 -13 -28 -28 l-17
-29 -31 34 c-30 31 -30 34 -13 44 10 5 22 21 25 36 l7 26 13 -26 c8 -14 23
-28 34 -32z m3816 -209 l21 -21 -33 -32 c-31 -31 -33 -31 -39 -12 -4 11 -17
25 -30 31 l-24 11 30 24 c16 14 29 32 30 41 0 14 2 14 12 -2 7 -11 21 -29 33
-40z m-321 -123 c14 -13 39 -23 56 -23 16 0 29 -4 29 -10 0 -5 -15 -10 -34
-10 -46 0 -84 -32 -91 -78 -11 -63 -18 -69 -26 -22 -11 58 -51 98 -109 109
-34 7 -38 9 -17 10 71 3 126 58 128 128 0 22 4 17 19 -27 10 -30 31 -65 45
-77z m61 -657 l-21 -22 -26 21 -25 20 25 26 25 25 21 -24 21 -25 -20 -21z
m-1973 -333 c6 -9 0 -13 -19 -13 l-27 0 7 80 c9 116 20 129 26 30 3 -47 9 -91
13 -97z m522 127 c-43 -59 -32 -64 48 -24 l52 27 -40 -44 c-41 -46 -107 -104
-134 -119 -36 -19 -292 -110 -310 -110 -48 0 -80 -13 -83 -34 -2 -13 -10 -21
-23 -21 -26 0 -31 41 -15 112 l11 51 87 1 c110 1 200 29 224 71 9 16 36 37 60
48 23 11 66 36 93 55 28 19 54 35 58 36 5 1 -8 -21 -28 -49z"/>
<path d="M1472 4905 c6 -19 83 -134 90 -135 16 -1 -17 63 -53 102 -22 24 -39
39 -37 33z"/>
<path d="M2685 4740 c-21 -41 -44 -86 -52 -100 -11 -18 -6 -15 17 10 36 39 84
134 77 153 -2 6 -21 -22 -42 -63z"/>
<path d="M4018 4373 c-36 -41 -71 -93 -60 -93 10 0 46 40 80 88 28 39 15 42
-20 5z"/>
<path d="M865 4195 c47 -54 75 -73 56 -37 -10 20 -87 92 -97 92 -3 0 16 -25
41 -55z"/>
<path d="M1069 3824 c30 -13 64 -23 75 -22 37 6 -42 48 -89 48 l-40 0 54 -26z"/>
<path d="M2632 4023 c-33 -16 -112 -85 -112 -98 0 -3 24 13 53 37 29 24 64 51
77 60 32 22 24 22 -18 1z"/>
<path d="M1916 3455 c-9 -14 -45 -46 -79 -71 -80 -59 -82 -61 -21 -31 46 24
124 98 124 119 0 14 -7 9 -24 -17z"/>
<path d="M911 2883 c-149 -200 -209 -488 -151 -719 20 -81 100 -253 127 -276
10 -8 7 5 -9 37 -65 128 -72 167 -72 350 1 136 5 191 23 275 27 128 62 235
105 324 18 36 29 66 26 66 -4 0 -26 -26 -49 -57z"/>
<path d="M700 2671 c-62 -123 -96 -291 -80 -403 10 -69 53 -203 69 -212 4 -3
1 28 -6 67 -25 147 -11 401 31 540 8 26 12 47 10 47 -2 0 -13 -18 -24 -39z"/>
<path d="M931 2048 c89 -230 206 -373 369 -453 l55 -26 -35 27 c-132 105 -246
239 -345 407 -32 53 -59 97 -61 97 -2 0 5 -24 17 -52z"/>
<path d="M4845 887 c-13 -8 -83 -14 -194 -17 l-174 -5 4 -215 c6 -329 2 -541
-10 -553 -20 -20 -11 -38 25 -53 61 -26 159 5 126 38 -8 8 -12 64 -12 171 l0
159 72 -3 73 -4 9 42 c13 62 0 73 -85 73 l-69 0 0 121 0 121 130 -3 130 -4 0
73 c0 39 -1 72 -2 72 -2 0 -12 -6 -23 -13z"/>
<path d="M4035 856 c-107 -47 -165 -191 -165 -407 1 -223 77 -385 196 -418 48
-13 60 -14 107 0 97 27 160 132 178 300 23 211 -9 395 -85 477 -51 57 -159 80
-231 48z m125 -124 c45 -46 55 -97 55 -287 0 -185 -10 -241 -50 -281 -32 -32
-61 -30 -95 6 -44 48 -55 105 -55 300 0 162 2 178 23 221 35 71 77 85 122 41z"/>
<path d="M465 847 c-27 -15 -319 -21 -375 -8 -24 5 -46 9 -47 7 -2 -2 -6 -40
-10 -85 -4 -58 -3 -81 6 -81 6 0 11 4 11 10 0 20 61 41 113 38 l52 -3 3 -319
c1 -206 -1 -323 -8 -330 -19 -19 -10 -35 29 -47 44 -13 103 -5 121 16 9 11 8
19 -4 37 -14 19 -16 66 -16 335 l0 313 44 0 c33 0 52 -7 74 -25 17 -14 33 -25
36 -25 9 0 7 168 -2 174 -4 2 -16 -1 -27 -7z"/>
<path d="M1486 817 c-3 -16 -6 -56 -6 -89 l0 -60 31 27 c27 22 39 26 88 23
l56 -3 3 -303 c2 -255 0 -307 -13 -332 -15 -28 -14 -30 10 -46 18 -12 39 -15
76 -12 66 7 75 17 58 65 -11 29 -14 107 -14 333 l0 295 43 3 c37 3 47 -1 71
-27 36 -38 41 -29 41 76 0 74 -1 75 -22 68 -13 -4 -93 -10 -178 -12 -119 -4
-165 -1 -197 10 l-41 14 -6 -30z"/>
<path d="M3030 830 c-14 -4 -87 -8 -162 -9 -76 -1 -138 -5 -138 -9 0 -4 5 -13
10 -18 18 -18 9 -696 -9 -717 -11 -14 -11 -20 -1 -32 10 -12 42 -15 166 -15
87 0 155 4 159 10 8 13 23 139 17 145 -3 3 -15 -7 -28 -20 -21 -22 -31 -25
-99 -25 l-75 0 0 126 0 127 85 -5 86 -4 -3 54 -3 55 -82 -2 -83 -2 0 121 0
122 74 -4 c61 -3 79 -8 99 -26 l24 -23 7 62 c11 107 11 107 -44 89z"/>
<path d="M3301 826 c-47 -17 -111 -73 -127 -112 -19 -46 -18 -138 3 -182 9
-21 61 -80 114 -132 102 -100 117 -127 101 -185 -17 -63 -127 -97 -192 -60
-39 22 -46 18 -59 -37 -14 -63 -7 -71 76 -88 207 -43 376 146 292 325 -13 27
-61 84 -120 142 -89 87 -99 101 -99 133 1 83 88 124 173 81 43 -22 43 -23 51
60 l6 57 -31 6 c-50 10 -151 6 -188 -8z"/>
<path d="M2057 733 c-27 -92 -131 -519 -142 -588 -4 -22 -14 -50 -22 -63 -23
-37 -2 -52 73 -52 l64 0 -6 30 c-4 16 -3 50 0 75 l7 45 54 0 54 0 6 -54 c4
-30 4 -63 0 -75 -6 -20 -3 -21 52 -21 91 0 90 -4 54 161 -44 203 -149 611
-159 621 -5 5 -20 -29 -35 -79z m42 -371 c6 -35 14 -69 18 -77 4 -12 -4 -15
-32 -15 l-38 0 7 38 c4 20 9 59 13 85 7 59 16 51 32 -31z"/>
<path d="M2355 803 c5 -10 10 -170 13 -355 4 -305 3 -341 -13 -364 -30 -47
-11 -54 150 -54 102 0 145 4 153 13 5 6 12 40 14 73 4 58 3 61 -14 50 -10 -6
-18 -14 -18 -18 0 -5 -36 -8 -80 -8 l-80 0 0 328 c0 242 3 331 12 340 9 9 -5
12 -66 12 -71 0 -77 -2 -71 -17z"/>
<path d="M545 390 l0 -250 63 0 c47 0 62 3 62 14 0 8 -4 18 -10 21 -5 3 -10
46 -10 96 l0 89 71 0 70 0 -3 -92 c-2 -51 -7 -101 -12 -110 -7 -16 -1 -18 59
-18 65 0 67 1 60 23 -13 39 -18 438 -6 450 21 21 10 27 -54 27 -50 0 -65 -3
-65 -14 0 -8 5 -18 10 -21 6 -3 10 -42 10 -86 l0 -79 -70 0 -70 0 0 84 c0 47
5 88 10 91 25 15 5 25 -52 25 l-63 0 0 -250z"/>
<path d="M990 627 c0 -7 5 -18 11 -24 13 -13 7 -399 -6 -440 l-7 -23 141 0
141 0 0 49 c0 28 -4 53 -10 56 -5 3 -10 -3 -10 -14 0 -19 -6 -21 -75 -21 l-75
0 0 80 c0 89 -5 85 83 71 l47 -8 0 48 0 49 -62 -3 -63 -2 -3 68 -3 67 55 0
c30 0 66 -4 79 -9 21 -8 26 -6 31 12 15 58 18 57 -134 57 -108 0 -140 -3 -140
-13z"/>
</g>
</svg>
